<svg id="wave2000" width="2000" height="68" viewBox="0 0 2000 68" fill="none" xmlns="http://www.w3.org/2000/svg">
<g clip-path="url(#clip0_12:15)">
<path d="M-15 23C-3.07299 39.979 31.327 63.7497 73.5109 23C102.136 56.2034 141.934 36.8348 158.255 23C164.533 41.8656 190.27 68.2774 243 23C254.927 39.979 289.327 63.7497 331.511 23C360.136 56.2034 399.934 36.8348 416.255 23C422.533 41.8656 448.27 68.2774 501 23C512.927 39.979 547.327 63.7497 589.511 23C618.136 56.2034 657.934 36.8348 674.255 23C680.533 41.8656 706.27 68.2774 759 23C770.927 39.979 805.327 63.7497 847.511 23C876.136 56.2034 915.934 36.8348 932.255 23C938.533 41.8656 964.27 68.2774 1017 23C1028.93 39.979 1063.33 63.7497 1105.51 23C1134.14 56.2034 1173.93 36.8348 1190.26 23C1196.53 41.8656 1222.27 68.2774 1275 23C1286.93 39.979 1321.33 63.7497 1363.51 23C1392.14 56.2034 1431.93 36.8348 1448.26 23C1454.53 41.8656 1480.27 68.2774 1533 23C1544.93 39.979 1579.33 63.7497 1621.51 23C1650.14 56.2034 1689.93 36.8348 1706.26 23C1712.53 41.8656 1738.27 68.2774 1791 23C1802.93 39.979 1837.33 63.7497 1879.51 23C1908.14 56.2034 1947.93 36.8348 1964.26 23C1970.53 41.8656 1996.27 68.2774 2049 23" stroke="white" stroke-width="2"/>
</g>
<defs>
<clipPath id="clip0_12:15">
<rect width="2000" height="68" fill="white"/>
</clipPath>
</defs>
</svg>
