<svg width="257" height="96" viewBox="0 0 257 96" fill="none" xmlns="http://www.w3.org/2000/svg">
<path fill-rule="evenodd" clip-rule="evenodd" d="M173.231 34L173.699 35.4085C176.775 44.6673 184.591 55.6808 197.983 58.8872C211.364 62.0911 230.689 57.8774 257 35.2499V38.2604C230.478 61.0688 211.81 64.2613 197.517 60.8392C183.904 57.5798 175.796 46.7944 172.283 37.4151C163.879 44.2403 150.209 52.0601 135.071 54.418C119.436 56.8533 102.233 53.4525 87.7756 37.1759C66.7547 57.1755 47.5291 61.4545 31.9386 58.4346C17.5562 55.6488 6.44358 46.6843 0 38.5335L7.61441e-07 35.2499C5.86655 43.6143 17.2419 53.5437 32.3191 56.4642C47.3287 59.3715 66.194 55.2716 87.1429 35.0036L87.9056 34.2658L88.598 35.0701C102.679 51.4288 119.453 54.8195 134.763 52.4349C150.133 50.0408 164.025 41.8161 172.101 34.9599L173.231 34Z" fill="white"/>
</svg>
